<?xml version="1.0" standalone="no"?>
<!DOCTYPE svg PUBLIC "-//W3C//DTD SVG 1.1//EN" "http://www.w3.org/Graphics/SVG/1.1/DTD/svg11.dtd" >
<svg>
<metadata>
Created by FontForge 20120731 at Tue Jan  3 19:52:42 2017
 By www-data
Copyright (c) 2013 by PYRS Fontlab Ltd. / Made with FontLab. All rights reserved.
</metadata>
<defs>
<font id="CFTechnoMania-Slanted" horiz-adv-x="1000" >
  <font-face 
    font-family="CF TechnoMania"
    font-weight="400"
    font-style="oblique"
    font-stretch="normal"
    units-per-em="1000"
    panose-1="0 0 0 0 0 0 0 0 0 0"
    ascent="800"
    descent="-200"
    cap-height="794"
    bbox="-182 -24 1425 811"
    underline-thickness="50"
    underline-position="-50"
    unicode-range="U+000D-FB02"
  />
<missing-glyph horiz-adv-x="500" 
d="M63 0v800h375v-800h-375v0zM125 63h250v675h-250v-675v0z" />
    <glyph glyph-name=".notdef" horiz-adv-x="500" 
d="M63 0v800h375v-800h-375v0zM125 63h250v675h-250v-675v0z" />
    <glyph glyph-name="NULL" horiz-adv-x="0" 
 />
    <glyph glyph-name="NULL" horiz-adv-x="0" 
 />
    <glyph glyph-name="nonmarkingreturn" unicode="&#xd;" horiz-adv-x="250" 
 />
    <glyph glyph-name="space" unicode=" " 
 />
    <glyph glyph-name="twosuperior" unicode="&#xb2;" 
 />
    <glyph glyph-name="minus" unicode="&#x2212;" 
 />
    <glyph glyph-name="multiply" unicode="&#xd7;" 
 />
    <glyph glyph-name="RS" 
 />
    <glyph glyph-name="US" 
 />
    <glyph glyph-name="exclam" unicode="!" 
 />
    <glyph glyph-name="quotedbl" unicode="&#x22;" 
 />
    <glyph glyph-name="numbersign" unicode="#" 
 />
    <glyph glyph-name="dollar" unicode="$" 
 />
    <glyph glyph-name="percent" unicode="%" 
 />
    <glyph glyph-name="ampersand" unicode="&#x26;" 
 />
    <glyph glyph-name="quotesingle" unicode="'" 
 />
    <glyph glyph-name="parenleft" unicode="(" 
 />
    <glyph glyph-name="parenright" unicode=")" 
 />
    <glyph glyph-name="asterisk" unicode="*" 
 />
    <glyph glyph-name="plus" unicode="+" 
 />
    <glyph glyph-name="comma" unicode="," 
 />
    <glyph glyph-name="hyphen" unicode="-" 
 />
    <glyph glyph-name="period" unicode="." 
 />
    <glyph glyph-name="slash" unicode="/" 
 />
    <glyph glyph-name="zero" unicode="0" 
 />
    <glyph glyph-name="one" unicode="1" 
 />
    <glyph glyph-name="two" unicode="2" 
 />
    <glyph glyph-name="three" unicode="3" 
 />
    <glyph glyph-name="four" unicode="4" 
 />
    <glyph glyph-name="five" unicode="5" 
 />
    <glyph glyph-name="six" unicode="6" 
 />
    <glyph glyph-name="seven" unicode="7" 
 />
    <glyph glyph-name="eight" unicode="8" 
 />
    <glyph glyph-name="nine" unicode="9" 
 />
    <glyph glyph-name="colon" unicode=":" 
 />
    <glyph glyph-name="semicolon" unicode=";" 
 />
    <glyph glyph-name="less" unicode="&#x3c;" 
 />
    <glyph glyph-name="equal" unicode="=" 
 />
    <glyph glyph-name="greater" unicode="&#x3e;" 
 />
    <glyph glyph-name="question" unicode="?" 
 />
    <glyph glyph-name="at" unicode="@" 
 />
    <glyph glyph-name="A" unicode="A" horiz-adv-x="952" 
d="M-33 1h-146l697 794h280l-39 -794h-251l15 169l16 151l43 310h-3l-255 -310l-123 -151l-23 -26h144h135l-151 -143h-50h-202h-87z" />
    <glyph glyph-name="B" unicode="B" horiz-adv-x="773" 
d="M222 146q31 0 63 3t61 12.5t52.5 28t37.5 48.5q15 33 8.5 51.5t-26.5 28.5t-48.5 12.5t-58.5 2.5h-70l-87 -187h68zM659 226q-33 -72 -85 -116.5t-112 -70t-124 -34.5t-121 -9h-362l224 480h228h1h64q28 0 57 3.5t55 13t47 26t33 41.5q12 26 8 41.5t-19 24t-38.5 11.5
t-50.5 3h-14h-66h-1h-162l159 150h241q60 0 105.5 -12.5t71 -37t29 -62.5t-20.5 -89q-35 -75 -95 -119t-143 -67l-1 -2q158 -33 92 -175z" />
    <glyph glyph-name="C" unicode="C" horiz-adv-x="778" 
d="M332 -24q-57 0 -111.5 9.5t-99.5 29.5t-78.5 52t-48 77.5t-7.5 105t42 134.5q48 104 121.5 182t163.5 129.5t192.5 77.5t208.5 26q26 0 51 -2.5t49 -6.5q29 -5 57 -11.5t55 -14.5l-150 -142q-8 3 -17 5.5t-19 4.5q-41 9 -87 9q-61 0 -119.5 -19.5t-109.5 -53.5
t-92.5 -81.5t-67.5 -102.5q-27 -59 -27.5 -105t22.5 -78.5t67.5 -49.5t107.5 -17q19 0 37.5 1.5t38.5 3.5q39 5 78 14t75 20l-199 -189q-7 -1 -13.5 -1.5t-13.5 -0.5q-48 -6 -106 -6z" />
    <glyph glyph-name="D" unicode="D" horiz-adv-x="898" 
d="M536 790q75 0 138 -8t111 -26t79 -47.5t42.5 -73.5t0.5 -103t-47 -136q-52 -111 -125.5 -188t-163.5 -124t-193 -68t-213 -21h-312l222 477l183 -1h45l-148 -318h89q129 0 226 60t153 180q55 119 13 179.5t-168 60.5h-24q-11 0 -21.5 0.5t-21.5 0.5l-66 1h-120l163 155
h158v0z" />
    <glyph glyph-name="E" unicode="E" horiz-adv-x="780" 
d="M445 0h-581l371 795h581h126l-158 -150h-38h-352l-77 -164h164h228l-150 -150h-148h-164l-84 -180h352h140l-158 -151h-52z" />
    <glyph glyph-name="F" unicode="F" horiz-adv-x="735" 
d="M88 -3h-229l371 795h552h125l-2 -4l-154 -146h-39h-324l-81 -174h162h229v0h2l-3 -3l-65 -62l-91 -86h-142h-162z" />
    <glyph glyph-name="G" unicode="G" horiz-adv-x="916" 
d="M345 -17q-57 0 -111.5 9.5t-100 29.5t-78.5 52t-48 77.5t-7.5 105t42.5 134.5q52 112 129 191t172.5 128.5t205.5 72t228 22.5q23 0 57 -1.5t71 -6.5q31 -4 61 -10t54 -17l-3 -5l-148 -141q-10 4 -19.5 7.5t-19.5 5.5q-25 6 -49.5 8.5t-44.5 2.5q-70 0 -138 -14
t-128.5 -45t-110 -79.5t-81.5 -118.5q-27 -59 -27.5 -105.5t22 -78.5t67 -49.5t107.5 -17.5q49 0 88 14l73 157h-229l158 150h363l-206 -441q-121 -26 -205.5 -31.5t-143.5 -5.5z" />
    <glyph glyph-name="H" unicode="H" horiz-adv-x="819" 
d="M89 -2h-229l371 795h229l-142 -304h270l142 304h229l-371 -795h-228l158 341h-270z" />
    <glyph glyph-name="I" unicode="I" horiz-adv-x="338" 
d="M98 -1h-228l370 795h229z" />
    <glyph glyph-name="J" unicode="J" horiz-adv-x="757" 
d="M723 407q-40 -86 -99.5 -161t-125.5 -130.5t-133 -87t-122 -31.5h-420l227 215h259q19 0 45 15t54 41t54 61.5t46 77.5l185 396h215l-185 -396v0z" />
    <glyph glyph-name="K" unicode="K" horiz-adv-x="839" 
d="M98 -2h-229l371 795h229l-152 -325h3l409 325h276l-490 -370l144 -425h-292l-98 361h-3z" />
    <glyph glyph-name="L" unicode="L" horiz-adv-x="702" 
d="M463 159h132v-1l-165 -157h-40h-520l371 795h229l-298 -637h291z" />
    <glyph glyph-name="M" unicode="M" horiz-adv-x="1122" 
d="M692 -2l289 611h-3l-503 -611h-210l75 611h-2l-280 -611h-81h-45l-20 167l6 14l177 379l248 235h222l-64 -528h2l437 528h202l30 -247l-170 -364l-10 -21l-172 -163h-43h-85z" />
    <glyph glyph-name="N" unicode="N" horiz-adv-x="888" 
d="M1020 796l-259 -555l-16 -35l-217 -205h-10h-153l-47 543h-2l-246 -543h-210l250 537l272 258h140l38 -540h3l248 540h209z" />
    <glyph glyph-name="O" unicode="O" horiz-adv-x="932" 
d="M345 141q52 0 98.5 21.5t86.5 56.5t72 81t55 95q24 52 35 98t3.5 80.5t-35 55t-79.5 20.5t-98.5 -20.5t-86 -55t-71.5 -80.5t-56 -98q-23 -49 -33.5 -95t-3.5 -81t34 -56.5t79 -21.5zM655 806q106 0 173 -28.5t96.5 -81.5t21.5 -129t-53 -172q-44 -95 -107 -171
t-142.5 -129.5t-173.5 -82t-199 -28.5t-172 28.5t-96.5 82t-21.5 129.5t52 171q44 96 107 172t142 129t173 81.5t200 28.5z" />
    <glyph glyph-name="P" unicode="P" horiz-adv-x="904" 
d="M908 488q-33 -71 -88 -127t-128.5 -94.5t-163 -59t-190.5 -20.5h-171l-87 -187h-228l170 365h288l73 -2q37 0 72.5 6t66.5 21t56.5 40t42.5 62q17 36 14.5 60t-20 38.5t-47 20.5t-66.5 6h-74h-209l193 177h153q247 0 331.5 -74.5t11.5 -231.5z" />
    <glyph glyph-name="Q" unicode="Q" horiz-adv-x="937" 
d="M350 146q52 0 97 21l-70 127l-27 52h227l26 -47q35 49 59 101t35 98t3.5 80.5t-35 55t-79.5 20.5t-98 -20.5t-85.5 -55t-72 -80.5t-56.5 -98q-23 -49 -33.5 -95t-3.5 -81t34 -56.5t79 -21.5zM764 2h-227l-17 31q-114 -44 -244 -44q-105 0 -172 28.5t-96.5 82t-21.5 129.5
t52 171q45 96 108 172t141.5 129t172.5 81.5t200 28.5t173.5 -28.5t96.5 -81.5t21 -129t-52 -172q-78 -164 -206 -267z" />
    <glyph glyph-name="R" unicode="R" horiz-adv-x="909" 
d="M949 553q-44 -94 -121 -154t-188 -81l-1 -3q30 -8 42.5 -24.5t15.5 -42t-0.5 -60.5t-6.5 -78l-7 -115h-257l3 29q7 60 6.5 98.5t-12 61t-34.5 31.5t-61 9h-132l-104 -223h-229l187 401h277l-1 -1h73q33 0 70 2t71.5 12.5t64 32t47.5 61.5q15 33 7.5 53t-30.5 31t-57.5 15
t-74.5 4h-72h-221l170 176h350q69 0 123.5 -14t86.5 -43.5t37.5 -73.5t-22.5 -104z" />
    <glyph glyph-name="S" unicode="S" horiz-adv-x="848" 
d="M442 578q-11 -24 -0.5 -39.5t34 -26t55.5 -19.5t65 -20.5t62 -27.5t45.5 -41.5t16.5 -63t-25 -91.5q-36 -78 -92 -128.5t-122.5 -80t-140 -41.5t-145.5 -12q-30 0 -77.5 2t-98 6t-96 10.5t-70.5 14.5l162 154q27 -7 60.5 -12.5t67.5 -9.5t66.5 -6t58.5 -2q27 0 54 3
t51 11.5t43 23.5t30 39q13 28 4 45.5t-32 30t-55 22t-64.5 21.5t-61.5 28t-45.5 42t-16.5 63.5t25 91.5q34 72 90 119t123 74.5t138.5 39t136.5 11.5q38 0 95 -3t110 -9q34 -3 61 -7.5t43 -9.5l-155 -146q-5 1 -11 1.5t-12 1.5q-25 4 -51.5 6.5t-52 4.5t-47.5 3t-37 1
q-22 0 -49.5 -2t-54.5 -9.5t-50 -22t-35 -40.5z" />
    <glyph glyph-name="T" unicode="T" horiz-adv-x="885" 
d="M856 603h-26h-208l-281 -604h-229l281 604h-298l208 192h616h30h115l-202 -186z" />
    <glyph glyph-name="U" unicode="U" horiz-adv-x="848" 
d="M301 150q43 0 79 15.5t65 41.5t52.5 61.5t41.5 74.5l213 458h229l-230 -493q-38 -82 -93.5 -141.5t-123 -98.5t-145.5 -57.5t-162 -18.5t-144.5 18.5t-92 57.5t-31 98.5t38.5 141.5l230 493h229l-214 -458q-18 -39 -28 -74.5t-5.5 -61.5t26 -41.5t65.5 -15.5z" />
    <glyph glyph-name="V" unicode="V" horiz-adv-x="947" 
d="M963 794l32 -245l-523 -550h-324l-16 635l54 47l128 113l1 1h293l-76 -162h-132l-4 -463h2l560 624h5z" />
    <glyph glyph-name="W" unicode="W" horiz-adv-x="1323" 
d="M1422 658l3 -21l-506 -636h-294l137 610h-2l-415 -610h-322l89 642l27 25l134 127l2 1h263l-75 -161h-106l-73 -422l407 582h333l-157 -582l338 422h-132l75 161h258v-1z" />
    <glyph glyph-name="X" unicode="X" horiz-adv-x="977" 
d="M687 418l103 -417h-295l-64 292l-335 -292h-278l495 417l-89 377h287l52 -261l300 261h268z" />
    <glyph glyph-name="Y" unicode="Y" horiz-adv-x="953" 
d="M842 795h287l-574 -495l-140 -300h-250l140 300l-116 495h287l36 -319z" />
    <glyph glyph-name="Z" unicode="Z" horiz-adv-x="748" 
d="M504 156h117l-1 -3l-162 -154h-27h-580l78 168l627 469h-407l166 157h575l-78 -168l-640 -469h332z" />
    <glyph glyph-name="a" unicode="a" 
 />
    <glyph glyph-name="b" unicode="b" 
 />
    <glyph glyph-name="c" unicode="c" 
 />
    <glyph glyph-name="d" unicode="d" 
 />
    <glyph glyph-name="e" unicode="e" 
 />
    <glyph glyph-name="f" unicode="f" 
 />
    <glyph glyph-name="g" unicode="g" 
 />
    <glyph glyph-name="h" unicode="h" 
 />
    <glyph glyph-name="i" unicode="i" 
 />
    <glyph glyph-name="j" unicode="j" 
 />
    <glyph glyph-name="k" unicode="k" 
 />
    <glyph glyph-name="l" unicode="l" 
 />
    <glyph glyph-name="m" unicode="m" 
 />
    <glyph glyph-name="n" unicode="n" 
 />
    <glyph glyph-name="o" unicode="o" 
 />
    <glyph glyph-name="p" unicode="p" 
 />
    <glyph glyph-name="q" unicode="q" 
 />
    <glyph glyph-name="r" unicode="r" 
 />
    <glyph glyph-name="s" unicode="s" 
 />
    <glyph glyph-name="t" unicode="t" 
 />
    <glyph glyph-name="u" unicode="u" 
 />
    <glyph glyph-name="v" unicode="v" 
 />
    <glyph glyph-name="w" unicode="w" 
 />
    <glyph glyph-name="x" unicode="x" 
 />
    <glyph glyph-name="y" unicode="y" 
 />
    <glyph glyph-name="z" unicode="z" 
 />
    <glyph glyph-name="braceleft" unicode="{" 
 />
    <glyph glyph-name="bar" unicode="|" 
 />
    <glyph glyph-name="braceright" unicode="}" 
 />
    <glyph glyph-name="asciitilde" unicode="~" 
 />
    <glyph glyph-name="DEL" 
 />
    <glyph glyph-name="Adieresis" unicode="&#xc4;" 
 />
    <glyph glyph-name="Aring" unicode="&#xc5;" 
 />
    <glyph glyph-name="Ccedilla" unicode="&#xc7;" 
 />
    <glyph glyph-name="Eacute" unicode="&#xc9;" 
 />
    <glyph glyph-name="Ntilde" unicode="&#xd1;" 
 />
    <glyph glyph-name="Odieresis" unicode="&#xd6;" 
 />
    <glyph glyph-name="Udieresis" unicode="&#xdc;" 
 />
    <glyph glyph-name="aacute" unicode="&#xe1;" 
 />
    <glyph glyph-name="agrave" unicode="&#xe0;" 
 />
    <glyph glyph-name="acircumflex" unicode="&#xe2;" 
 />
    <glyph glyph-name="adieresis" unicode="&#xe4;" 
 />
    <glyph glyph-name="atilde" unicode="&#xe3;" 
 />
    <glyph glyph-name="aring" unicode="&#xe5;" 
 />
    <glyph glyph-name="ccedilla" unicode="&#xe7;" 
 />
    <glyph glyph-name="eacute" unicode="&#xe9;" 
 />
    <glyph glyph-name="egrave" unicode="&#xe8;" 
 />
    <glyph glyph-name="ecircumflex" unicode="&#xea;" 
 />
    <glyph glyph-name="edieresis" unicode="&#xeb;" 
 />
    <glyph glyph-name="iacute" unicode="&#xed;" 
 />
    <glyph glyph-name="igrave" unicode="&#xec;" 
 />
    <glyph glyph-name="icircumflex" unicode="&#xee;" 
 />
    <glyph glyph-name="idieresis" unicode="&#xef;" 
 />
    <glyph glyph-name="ntilde" unicode="&#xf1;" 
 />
    <glyph glyph-name="oacute" unicode="&#xf3;" 
 />
    <glyph glyph-name="ograve" unicode="&#xf2;" 
 />
    <glyph glyph-name="ocircumflex" unicode="&#xf4;" 
 />
    <glyph glyph-name="odieresis" unicode="&#xf6;" 
 />
    <glyph glyph-name="otilde" unicode="&#xf5;" 
 />
    <glyph glyph-name="uacute" unicode="&#xfa;" 
 />
    <glyph glyph-name="ugrave" unicode="&#xf9;" 
 />
    <glyph glyph-name="ucircumflex" unicode="&#xfb;" 
 />
    <glyph glyph-name="udieresis" unicode="&#xfc;" 
 />
    <glyph glyph-name="dagger" unicode="&#x2020;" 
 />
    <glyph glyph-name="degree" unicode="&#xb0;" 
 />
    <glyph glyph-name="cent" unicode="&#xa2;" 
 />
    <glyph glyph-name="sterling" unicode="&#xa3;" 
 />
    <glyph glyph-name="section" unicode="&#xa7;" 
 />
    <glyph glyph-name="bullet" unicode="&#x2022;" 
 />
    <glyph glyph-name="paragraph" unicode="&#xb6;" 
 />
    <glyph glyph-name="germandbls" unicode="&#xdf;" 
 />
    <glyph glyph-name="registered" unicode="&#xae;" 
 />
    <glyph glyph-name="copyright" unicode="&#xa9;" 
 />
    <glyph glyph-name="trademark" unicode="&#x2122;" 
 />
    <glyph glyph-name="acute" unicode="&#xb4;" 
 />
    <glyph glyph-name="dieresis" unicode="&#xa8;" 
 />
    <glyph glyph-name="notequal" unicode="&#x2260;" 
 />
    <glyph glyph-name="AE" unicode="&#xc6;" 
 />
    <glyph glyph-name="Oslash" unicode="&#xd8;" 
 />
    <glyph glyph-name="infinity" unicode="&#x221e;" 
 />
    <glyph glyph-name="plusminus" unicode="&#xb1;" 
 />
    <glyph glyph-name="lessequal" unicode="&#x2264;" 
 />
    <glyph glyph-name="greaterequal" unicode="&#x2265;" 
 />
    <glyph glyph-name="yen" unicode="&#xa5;" 
 />
    <glyph glyph-name="mu" unicode="&#xb5;" 
 />
    <glyph glyph-name="partialdiff" unicode="&#x2202;" 
 />
    <glyph glyph-name="summation" unicode="&#x2211;" 
 />
    <glyph glyph-name="product" unicode="&#x220f;" 
 />
    <glyph glyph-name="pi" unicode="&#x3c0;" 
 />
    <glyph glyph-name="integral" unicode="&#x222b;" 
 />
    <glyph glyph-name="ordfeminine" unicode="&#xaa;" 
 />
    <glyph glyph-name="ordmasculine" unicode="&#xba;" 
 />
    <glyph glyph-name="Omega" unicode="&#x2126;" 
 />
    <glyph glyph-name="ae" unicode="&#xe6;" 
 />
    <glyph glyph-name="oslash" unicode="&#xf8;" 
 />
    <glyph glyph-name="questiondown" unicode="&#xbf;" 
 />
    <glyph glyph-name="exclamdown" unicode="&#xa1;" 
 />
    <glyph glyph-name="logicalnot" unicode="&#xac;" 
 />
    <glyph glyph-name="radical" unicode="&#x221a;" 
 />
    <glyph glyph-name="florin" unicode="&#x192;" 
 />
    <glyph glyph-name="approxequal" unicode="&#x2248;" 
 />
    <glyph glyph-name="Delta" unicode="&#x2206;" 
 />
    <glyph glyph-name="guillemotleft" unicode="&#xab;" 
 />
    <glyph glyph-name="guillemotright" unicode="&#xbb;" 
 />
    <glyph glyph-name="ellipsis" unicode="&#x2026;" 
 />
    <glyph glyph-name="uni00A0" unicode="&#xa0;" 
 />
    <glyph glyph-name="Agrave" unicode="&#xc0;" 
 />
    <glyph glyph-name="Atilde" unicode="&#xc3;" 
 />
    <glyph glyph-name="Otilde" unicode="&#xd5;" 
 />
    <glyph glyph-name="OE" unicode="&#x152;" 
 />
    <glyph glyph-name="oe" unicode="&#x153;" 
 />
    <glyph glyph-name="endash" unicode="&#x2013;" 
 />
    <glyph glyph-name="emdash" unicode="&#x2014;" 
 />
    <glyph glyph-name="quotedblleft" unicode="&#x201c;" 
 />
    <glyph glyph-name="quotedblright" unicode="&#x201d;" 
 />
    <glyph glyph-name="quoteleft" unicode="&#x2018;" 
 />
    <glyph glyph-name="quoteright" unicode="&#x2019;" 
 />
    <glyph glyph-name="divide" unicode="&#xf7;" 
 />
    <glyph glyph-name="lozenge" unicode="&#x25ca;" 
 />
    <glyph glyph-name="ydieresis" unicode="&#xff;" 
 />
    <glyph glyph-name="Ydieresis" unicode="&#x178;" 
 />
    <glyph glyph-name="fraction" unicode="&#x2044;" 
 />
    <glyph glyph-name="Euro" unicode="&#x20ac;" 
 />
    <glyph glyph-name="guilsinglleft" unicode="&#x2039;" 
 />
    <glyph glyph-name="guilsinglright" unicode="&#x203a;" 
 />
    <glyph glyph-name="fi" unicode="&#xfb01;" 
 />
    <glyph glyph-name="fl" unicode="&#xfb02;" 
 />
    <glyph glyph-name="daggerdbl" unicode="&#x2021;" 
 />
    <glyph glyph-name="periodcentered" unicode="&#xb7;" 
 />
    <glyph glyph-name="quotesinglbase" unicode="&#x201a;" 
 />
    <glyph glyph-name="quotedblbase" unicode="&#x201e;" 
 />
    <glyph glyph-name="perthousand" unicode="&#x2030;" 
 />
    <glyph glyph-name="Acircumflex" unicode="&#xc2;" 
 />
    <glyph glyph-name="Ecircumflex" unicode="&#xca;" 
 />
    <glyph glyph-name="Aacute" unicode="&#xc1;" 
 />
    <glyph glyph-name="Edieresis" unicode="&#xcb;" 
 />
    <glyph glyph-name="Egrave" unicode="&#xc8;" 
 />
    <glyph glyph-name="Iacute" unicode="&#xcd;" 
 />
    <glyph glyph-name="Icircumflex" unicode="&#xce;" 
 />
    <glyph glyph-name="Idieresis" unicode="&#xcf;" 
 />
    <glyph glyph-name="Igrave" unicode="&#xcc;" 
 />
    <glyph glyph-name="Oacute" unicode="&#xd3;" 
 />
    <glyph glyph-name="Ocircumflex" unicode="&#xd4;" 
 />
    <glyph glyph-name="apple" unicode="&#xf8ff;" 
 />
    <glyph glyph-name="Ograve" unicode="&#xd2;" 
 />
    <glyph glyph-name="Uacute" unicode="&#xda;" 
 />
    <glyph glyph-name="Ucircumflex" unicode="&#xdb;" 
 />
    <glyph glyph-name="Ugrave" unicode="&#xd9;" 
 />
  </font>
</defs>
</svg>
